<svg width="18" height="18" viewBox="0 0 18 18" fill="none" xmlns="http://www.w3.org/2000/svg">
<path d="M8.89807 0.742782C5.48127 0.742782 2.23667 0.439077 0.997365 3.61717C0.485456 4.92978 0.559796 6.63448 0.559796 9.0754C0.559796 11.2173 0.491102 13.2304 0.997365 14.5327C2.23385 17.7127 5.5048 17.408 8.89619 17.408C12.1681 17.408 15.5416 17.7484 16.796 14.5327C17.3088 13.2069 17.2335 11.5276 17.2335 9.0754C17.2335 5.82021 17.4133 3.71872 15.8333 2.14096C14.2336 0.542506 12.0702 0.742782 8.89431 0.742782H8.89807ZM8.15091 2.24438C15.2781 2.2331 16.1852 1.4414 15.6846 12.4397C15.5068 16.3295 12.5426 15.9027 8.89901 15.9027C2.25549 15.9027 2.06447 15.7127 2.06447 9.07164C2.06447 2.35346 2.59143 2.24815 8.15091 2.2425V2.24438ZM13.349 3.62751C12.7967 3.62751 12.3488 4.07508 12.3488 4.62701C12.3488 5.17895 12.7967 5.62651 13.349 5.62651C13.9014 5.62651 14.3493 5.17895 14.3493 4.62701C14.3493 4.07508 13.9014 3.62751 13.349 3.62751ZM8.89807 4.79626C6.53332 4.79626 4.61648 6.71252 4.61648 9.0754C4.61648 11.4383 6.53332 13.3536 8.89807 13.3536C11.2628 13.3536 13.1787 11.4383 13.1787 9.0754C13.1787 6.71252 11.2628 4.79626 8.89807 4.79626ZM8.89807 6.29786C12.5727 6.29786 12.5774 11.8529 8.89807 11.8529C5.22438 11.8529 5.21873 6.29786 8.89807 6.29786Z" fill="#BD2D43"/>
</svg>
