<svg width="17" height="16" viewBox="0 0 17 16" fill="none" xmlns="http://www.w3.org/2000/svg">
<path d="M0.554528 7.78198L4.3202 9.18744L5.77774 13.8749C5.871 14.1751 6.23811 14.2861 6.48178 14.0869L8.58083 12.3757C8.80086 12.1964 9.11425 12.1875 9.34419 12.3544L13.1301 15.103C13.3908 15.2925 13.7601 15.1497 13.8255 14.8347L16.5989 1.49415C16.6702 1.15008 16.3321 0.86305 16.0045 0.98976L0.550116 6.95161C0.168733 7.09869 0.172056 7.63865 0.554528 7.78198ZM5.54284 8.43928L12.9024 3.90654C13.0346 3.82532 13.1707 4.00416 13.0571 4.10951L6.98339 9.75535C6.7699 9.95407 6.63219 10.22 6.59318 10.5087L6.38629 12.042C6.35889 12.2467 6.07131 12.267 6.01482 12.0689L5.2191 9.27291C5.12796 8.95401 5.26077 8.61338 5.54284 8.43928Z" fill="#BD2D43"/>
</svg>
