<svg width="17" height="16" viewBox="0 0 17 16" fill="none" xmlns="http://www.w3.org/2000/svg">
<path fill-rule="evenodd" clip-rule="evenodd" d="M13.7748 2.3541C12.2928 0.863117 10.3219 0.0416459 8.22211 0.0407715C3.89539 0.0407715 0.374072 3.57917 0.372332 7.92815C0.371751 9.31839 0.733165 10.6755 1.42012 11.8717L0.306488 15.9591L4.46778 14.8622C5.61438 15.4907 6.90524 15.822 8.21892 15.8223H8.22221C12.5484 15.8223 16.0702 12.2837 16.0718 7.93447C16.0727 5.82673 15.2569 3.84499 13.7748 2.3541ZM8.22211 14.4902H8.2194C7.04872 14.4897 5.90057 14.1736 4.89871 13.5763L4.66057 13.4342L2.1912 14.0852L2.85031 11.6658L2.69513 11.4178C2.04201 10.3739 1.69713 9.16741 1.69771 7.92864C1.69906 4.31388 4.62596 1.373 8.22472 1.373C9.9674 1.37358 11.6056 2.05641 12.8373 3.29566C14.0691 4.53491 14.7471 6.18213 14.7465 7.93398C14.745 11.549 11.8183 14.4902 8.22211 14.4902ZM11.8009 9.57994C11.6048 9.48123 10.6404 9.00457 10.4606 8.9387C10.281 8.87292 10.15 8.84018 10.0194 9.03741C9.8886 9.23464 9.51278 9.67865 9.3983 9.81011C9.28382 9.94166 9.16954 9.95817 8.97336 9.85946C8.77719 9.76085 8.14525 9.55264 7.39602 8.88118C6.813 8.35857 6.41939 7.71314 6.30492 7.51591C6.19063 7.31849 6.30395 7.22211 6.39097 7.11368C6.60329 6.84873 6.8159 6.57096 6.88126 6.4395C6.94672 6.30795 6.91394 6.19282 6.86483 6.0942C6.8159 5.99559 6.42365 5.02546 6.26025 4.63071C6.10091 4.24655 5.93934 4.29843 5.81887 4.29241C5.70459 4.28667 5.57377 4.28551 5.44296 4.28551C5.31224 4.28551 5.09972 4.33477 4.91988 4.53219C4.74014 4.72952 4.23351 5.20627 4.23351 6.1764C4.23351 7.14652 4.93632 8.0837 5.03436 8.21526C5.1324 8.34681 6.41746 10.3376 8.38493 11.1912C8.85289 11.3945 9.21817 11.5156 9.50311 11.6065C9.97301 11.7565 10.4005 11.7353 10.7385 11.6846C11.1154 11.6279 11.8988 11.2077 12.0624 10.7474C12.2258 10.287 12.2258 9.8924 12.1767 9.81011C12.1278 9.72791 11.9969 9.67865 11.8009 9.57994Z" fill="#BD2D43"/>
</svg>
