<svg width="29" height="26" viewBox="0 0 29 26" fill="none" xmlns="http://www.w3.org/2000/svg">
<path d="M27.5398 2.35184H10.8185C10.3588 0.986467 9.06734 0 7.54892 0C6.0305 0 4.73905 0.986467 4.27934 2.35184H1.66927C1.06296 2.35184 0.571411 2.84339 0.571411 3.44971C0.571411 4.05602 1.06296 4.54757 1.66927 4.54757H4.27941C4.73912 5.91295 6.03057 6.89941 7.54899 6.89941C9.06741 6.89941 10.3589 5.91295 10.8186 4.54757H27.5398C28.1462 4.54757 28.6377 4.05602 28.6377 3.44971C28.6377 2.84339 28.1462 2.35184 27.5398 2.35184ZM7.54892 4.70369C6.85749 4.70369 6.29494 4.14114 6.29494 3.44971C6.29494 2.75827 6.85749 2.19573 7.54892 2.19573C8.24035 2.19573 8.8029 2.75827 8.8029 3.44971C8.8029 4.14114 8.24035 4.70369 7.54892 4.70369Z" fill="white"/>
<path d="M27.5397 11.7596H24.9296C24.4699 10.3942 23.1783 9.40771 21.66 9.40771C20.1416 9.40771 18.8502 10.3942 18.3905 11.7596H1.66921C1.0629 11.7596 0.57135 12.2511 0.57135 12.8574C0.57135 13.4637 1.0629 13.9553 1.66921 13.9553H18.3905C18.8502 15.3207 20.1417 16.3071 21.6601 16.3071C23.1784 16.3071 24.4699 15.3207 24.9296 13.9553H27.5398C28.1461 13.9553 28.6376 13.4637 28.6376 12.8574C28.6376 12.2511 28.1461 11.7596 27.5397 11.7596ZM21.6601 14.1114C20.9686 14.1114 20.4061 13.5489 20.4061 12.8574C20.4061 12.166 20.9686 11.6034 21.6601 11.6034C22.3515 11.6034 22.914 12.166 22.914 12.8574C22.914 13.5489 22.3515 14.1114 21.6601 14.1114Z" fill="white"/>
<path d="M27.5397 21.1668H15.5222C15.0625 19.8014 13.771 18.8149 12.2526 18.8149C10.7342 18.8149 9.44275 19.8014 8.98303 21.1668H1.66921C1.0629 21.1668 0.57135 21.6583 0.57135 22.2646C0.57135 22.871 1.0629 23.3625 1.66921 23.3625H8.98303C9.44275 24.7279 10.7342 25.7144 12.2526 25.7144C13.771 25.7144 15.0625 24.7279 15.5222 23.3625H27.5398C28.1461 23.3625 28.6376 22.871 28.6376 22.2646C28.6376 21.6583 28.1461 21.1668 27.5397 21.1668ZM12.2526 23.5187C11.5612 23.5187 10.9986 22.9562 10.9986 22.2647C10.9986 21.5733 11.5612 21.0107 12.2526 21.0107C12.9441 21.0107 13.5066 21.5732 13.5066 22.2646C13.5066 22.9561 12.9441 23.5187 12.2526 23.5187Z" fill="white"/>
</svg>
