<svg width="234" height="58" viewBox="0 0 234 58" fill="none" xmlns="http://www.w3.org/2000/svg">
<path d="M214.201 12.2524C214.201 13.5254 214.201 14.7188 214.201 15.9918C212.329 15.9918 210.497 15.9918 208.584 15.9918C208.584 21.0042 208.584 25.9369 208.584 30.8697C207.19 30.8697 205.836 30.8697 204.441 30.8697C204.441 25.9369 204.441 21.0042 204.441 15.9918C202.529 15.9918 200.657 15.9918 198.785 15.9918C198.785 14.6791 198.785 13.4856 198.785 12.2524C203.884 12.2524 209.023 12.2524 214.201 12.2524Z" fill="#3298F2"/>
<path d="M103.615 30.949C103.296 30.949 103.017 30.9092 102.738 30.949C102.181 31.0285 101.862 30.8296 101.503 30.3921C97.8385 25.698 94.1337 21.0436 90.4688 16.3893C90.3493 16.2302 90.1899 16.0313 89.9111 15.7528C89.9111 20.8845 89.9111 25.8969 89.9111 30.9092C89.194 30.9092 88.5566 30.9092 87.8794 30.9092C87.8794 24.7034 87.8794 18.4977 87.8794 12.2521C88.4769 12.2521 89.0347 12.2124 89.5924 12.2919C89.8314 12.3317 90.0704 12.5704 90.2297 12.7693C93.8549 17.344 97.4402 21.9188 101.065 26.4936C101.225 26.6925 101.344 26.8516 101.623 27.13C101.623 22.1177 101.623 17.2247 101.623 12.2919C102.34 12.2919 103.017 12.2919 103.695 12.2919C103.615 18.4579 103.615 24.6637 103.615 30.949Z" fill="#3298F2"/>
<path d="M170.381 30.8695C170.222 30.9092 170.182 30.9092 170.182 30.9092C167.871 30.9888 167.871 30.9888 166.477 29.1589C165.242 27.4881 163.967 25.7776 162.692 24.1466C162.493 23.9079 162.095 23.709 161.776 23.709C160.223 23.6692 158.669 23.6692 156.996 23.6692C156.996 24.9024 156.996 26.1356 156.996 27.329C156.996 28.5224 156.996 29.6761 156.996 30.9092C156.279 30.9092 155.641 30.9092 154.924 30.9092C154.924 24.7035 154.924 18.4977 154.924 12.292C154.964 12.2522 155.004 12.2124 155.044 12.2124C158.151 12.2522 161.258 12.1726 164.366 12.3317C167.154 12.4909 169.265 14.3605 169.624 16.7474C170.102 19.8503 168.628 22.1575 165.561 23.0725C165.282 23.152 165.043 23.2316 164.684 23.3112C166.596 25.8571 168.469 28.3235 170.381 30.8695ZM157.075 21.6404C159.466 21.6404 161.816 21.8393 164.127 21.6006C166.636 21.3221 167.871 19.4922 167.513 17.185C167.274 15.6733 165.959 14.4401 164.087 14.3208C161.776 14.1616 159.466 14.2412 157.155 14.2014C157.115 14.2014 157.075 14.2412 157.036 14.281C157.075 16.7474 157.075 19.2138 157.075 21.6404Z" fill="#3298F2"/>
<path d="M137.038 12.2524C141.499 12.2524 145.961 12.2524 150.502 12.2524C150.502 12.8491 150.502 13.4856 150.502 14.1221C146.718 14.1221 142.973 14.1221 139.189 14.1221C139.189 16.2703 139.189 18.3389 139.189 20.5268C142.535 20.5268 145.921 20.5268 149.307 20.5268C149.307 21.2031 149.307 21.7998 149.307 22.476C145.921 22.476 142.575 22.476 139.189 22.476C139.189 24.664 139.189 26.8121 139.189 29C143.013 29 146.798 29 150.662 29C150.662 29.6763 150.662 30.273 150.662 30.9095C146.12 30.9095 141.619 30.9095 137.077 30.9095C137.038 24.7037 137.038 18.498 137.038 12.2524Z" fill="#3298F2"/>
<path d="M173.05 28.1645C173.449 27.6871 173.887 27.17 174.325 26.6528C174.723 26.9711 175.082 27.2495 175.44 27.528C177.472 29.0396 179.743 29.5966 182.253 29.0794C182.77 28.9601 183.328 28.6816 183.766 28.3634C185.519 27.0506 185.36 24.4649 183.368 23.5499C182.173 22.993 180.858 22.7941 179.583 22.3565C178.428 21.9587 177.233 21.6007 176.118 21.0835C173.17 19.6514 173.289 15.554 175.082 13.7639C176.436 12.4512 178.03 11.934 179.823 11.8942C182.173 11.8545 184.284 12.5307 186.157 13.923C186.276 14.0026 186.356 14.0822 186.515 14.2015C186.117 14.7584 185.718 15.2756 185.28 15.7927C183.966 14.7584 182.531 14.0424 180.898 13.8435C179.703 13.6844 178.548 13.7241 177.512 14.3208C176.476 14.8778 175.919 15.7132 175.919 16.9066C175.958 18.1 176.516 18.9354 177.552 19.373C178.707 19.8106 179.902 20.1288 181.057 20.4868C182.253 20.8846 183.487 21.2029 184.603 21.7598C187.909 23.3112 187.63 27.8462 185.32 29.6363C184.244 30.4717 183.049 30.9093 181.735 31.0684C178.827 31.5458 175.162 30.3126 173.05 28.1645Z" fill="#3298F2"/>
<path d="M80.709 12.2524C81.426 12.2524 82.0634 12.2524 82.7805 12.2524C82.7805 12.4513 82.8203 12.6502 82.8203 12.8491C82.8203 16.2703 82.8601 19.6516 82.7805 23.0727C82.7406 24.2662 82.5813 25.4994 82.1829 26.6132C81.1472 29.557 78.8366 30.9493 75.8489 31.188C74.853 31.2675 73.8172 31.188 72.8612 30.9891C69.5946 30.3128 67.4434 27.8464 67.284 24.3457C67.1247 20.3279 67.2442 16.3498 67.2442 12.2524C67.9214 12.2524 68.5588 12.2524 69.3157 12.2524C69.3157 12.4911 69.3157 12.7298 69.3157 13.0083C69.3157 16.3101 69.3157 19.5721 69.3157 22.8738C69.3157 23.6695 69.3954 24.4651 69.5946 25.2209C70.1523 27.5282 71.7059 28.9603 74.0563 29.199C75.1318 29.2785 76.2871 29.1989 77.283 28.8807C79.3944 28.2442 80.5895 26.2552 80.6293 23.5899C80.6691 20.129 80.6293 16.6283 80.6293 13.1674C80.709 12.8889 80.709 12.6105 80.709 12.2524Z" fill="#3298F2"/>
<path d="M115.247 12.2525C117.518 12.0933 117.518 12.0933 118.314 14.0426C120.187 18.5776 122.059 23.1125 123.931 27.6475C124.011 27.8066 124.091 27.9658 124.21 28.2442C124.33 27.9658 124.449 27.7669 124.529 27.568C126.561 22.675 128.592 17.7819 130.624 12.8492C130.823 12.332 131.102 12.1331 131.66 12.1729C132.138 12.2127 132.576 12.1729 133.174 12.1729C133.094 12.4514 133.014 12.6503 132.935 12.8492C130.425 18.6969 127.915 24.5844 125.405 30.4322C125.206 30.9095 124.967 31.0289 124.489 31.0289C123.294 30.9891 123.294 31.0289 122.816 29.915C120.386 24.2662 117.996 18.6173 115.566 12.9685C115.446 12.7696 115.367 12.5309 115.247 12.2525Z" fill="#3298F2"/>
<path d="M191.335 12.2124C192.729 12.2124 194.004 12.2124 195.358 12.2124C195.358 18.4182 195.358 24.6239 195.358 30.8695C194.004 30.8695 192.689 30.8695 191.335 30.8695C191.335 24.7035 191.335 18.4977 191.335 12.2124Z" fill="#3298F2"/>
<path d="M215.914 12.2124C216.751 12.2124 217.428 12.1726 218.105 12.2521C218.384 12.2919 218.663 12.5306 218.822 12.7693C220.655 15.4744 222.487 18.1794 224.32 20.8845C224.479 21.0834 224.598 21.3221 224.798 21.5608C224.957 21.3221 225.116 21.1232 225.236 20.9243C227.068 18.2192 228.901 15.5539 230.733 12.8091C231.052 12.3317 231.371 12.1328 231.928 12.2124C232.446 12.2521 232.964 12.2124 233.601 12.2124C233.402 12.4908 233.283 12.7295 233.163 12.9284C230.853 16.27 228.502 19.6513 226.232 22.9929C226.033 23.3111 225.873 23.7487 225.873 24.1465C225.833 26.3742 225.873 28.6019 225.873 30.9092C225.156 30.9092 224.519 30.9092 223.722 30.9092C223.722 30.6705 223.722 30.4318 223.722 30.1534C223.722 28.3235 223.682 26.4538 223.722 24.6239C223.722 23.9078 223.563 23.3111 223.124 22.6746C220.854 19.4126 218.623 16.1506 216.352 12.8886C216.233 12.7295 216.113 12.5306 215.914 12.2124Z" fill="#3298F2"/>
<path d="M109.352 12.2524C110.029 12.2524 110.666 12.2524 111.383 12.2524C111.383 18.4582 111.383 24.664 111.383 30.8697C110.746 30.8697 110.069 30.8697 109.352 30.8697C109.352 24.7037 109.352 18.498 109.352 12.2524Z" fill="#3298F2"/>
<path d="M186.794 44.4349C187.551 42.2072 188.308 40.1386 188.985 38.0302C189.184 37.3539 189.542 37.1948 190.22 37.3937C189.861 38.4678 189.463 39.5021 189.104 40.5364C188.547 42.1674 187.949 43.7984 187.391 45.4294C187.272 45.7476 187.152 46.1057 186.754 45.9863C186.515 45.9067 186.276 45.6681 186.196 45.4294C185.479 43.3608 184.762 41.2922 184.005 39.0247C183.567 40.2977 183.169 41.4513 182.81 42.5652C182.452 43.5597 182.133 44.594 181.774 45.5885C181.695 45.7476 181.416 45.9465 181.217 45.9465C181.057 45.9465 180.778 45.7874 180.739 45.6283C179.743 42.9232 178.787 40.1783 177.831 37.4733C178.707 37.1948 178.787 37.2346 179.065 38.0302C179.783 40.0988 180.5 42.1674 181.296 44.4349C181.456 44.0371 181.535 43.8382 181.615 43.5995C182.252 41.69 182.85 39.7805 183.487 37.9109C183.567 37.6722 183.806 37.4335 184.045 37.3539C184.483 37.1948 184.563 37.5926 184.643 37.9109C185.2 39.6612 185.798 41.4513 186.395 43.2017C186.515 43.5597 186.634 43.9177 186.794 44.4349Z" fill="#3298F2"/>
<path d="M227.108 37.3141C228.423 37.3141 229.698 37.2743 230.933 37.3141C232.008 37.3538 233.004 37.6323 233.363 38.7859C233.721 39.8998 233.323 40.775 232.207 41.4115C232.486 41.5308 232.646 41.6104 232.845 41.7297C234.319 42.5253 234.399 44.5143 232.925 45.3497C232.447 45.6282 231.889 45.7873 231.331 45.8271C229.937 45.9067 228.543 45.8669 227.108 45.8669C227.108 43.0027 227.108 40.1783 227.108 37.3141ZM228.025 45.0713C229.339 44.9917 230.574 45.0315 231.769 44.8724C232.805 44.7132 233.283 43.6789 232.845 42.8833C232.526 42.2468 231.929 42.0877 231.331 42.0479C230.256 42.0082 229.14 42.0479 228.025 42.0479C228.025 43.0027 228.025 43.9574 228.025 45.0713ZM228.025 38.1892C228.025 39.1837 228.025 40.1385 228.025 41.0534C229.14 41.0534 230.176 41.133 231.212 41.0137C232.088 40.9341 232.566 40.2578 232.486 39.4622C232.446 38.7462 231.929 38.229 231.052 38.1892C230.096 38.1495 229.1 38.1892 228.025 38.1892Z" fill="#3298F2"/>
<path d="M156.398 39.1039C156.398 40.2177 156.398 41.3316 156.398 42.4454C156.398 43.5593 156.398 44.6732 156.398 45.8666C156.08 45.8666 155.841 45.8666 155.522 45.8666C155.522 43.0422 155.522 40.2575 155.522 37.3933C156.04 37.1944 156.398 37.3138 156.757 37.7911C158.191 39.6608 159.705 41.5305 161.179 43.4002C161.338 43.5991 161.537 43.798 161.816 44.156C161.816 41.7692 161.816 39.5813 161.816 37.3535C162.135 37.3535 162.414 37.3535 162.732 37.3535C162.732 40.178 162.732 43.0024 162.732 45.8268C162.254 46.0257 161.936 45.8666 161.617 45.4688C160.103 43.5195 158.55 41.5703 157.036 39.621C156.876 39.4221 156.717 39.2232 156.558 39.0641C156.478 39.0641 156.438 39.1039 156.398 39.1039Z" fill="#3298F2"/>
<path d="M74.8529 41.6102C74.8529 44.1562 72.9806 46.0258 70.4311 46.0258C67.9612 46.0258 66.0889 44.1164 66.0889 41.6102C66.0889 39.0642 67.9612 37.1548 70.4709 37.1548C73.0204 37.1548 74.8529 39.0245 74.8529 41.6102ZM67.1246 41.4909C67.0848 43.5594 68.5986 45.1507 70.5107 45.1507C72.3831 45.1507 73.857 43.5992 73.8968 41.6102C73.9367 39.661 72.4627 38.0697 70.5506 38.03C68.5986 38.03 67.1645 39.5018 67.1246 41.4909Z" fill="#3298F2"/>
<path d="M139.388 41.0934C139.388 41.4116 139.388 41.6503 139.388 41.9685C137.874 41.9685 136.321 41.9685 134.727 41.9685C134.727 43.0028 134.727 43.9576 134.727 44.9919C136.44 44.9919 138.153 44.9919 139.946 44.9919C139.946 45.3101 139.986 45.5488 139.986 45.8273C137.914 45.8273 135.843 45.8273 133.771 45.8273C133.771 43.0028 133.771 40.1784 133.771 37.354C135.803 37.354 137.795 37.354 139.866 37.354C139.866 37.5927 139.866 37.8711 139.866 38.1894C138.153 38.1894 136.44 38.1894 134.687 38.1894C134.687 39.1839 134.687 40.0989 134.687 41.0934C136.281 41.0934 137.795 41.0934 139.388 41.0934Z" fill="#3298F2"/>
<path d="M211.692 45.0314C211.692 45.3099 211.692 45.5485 211.692 45.827C209.66 45.827 207.628 45.827 205.517 45.827C205.517 43.0026 205.517 40.1782 205.517 37.314C207.549 37.314 209.58 37.314 211.612 37.314C211.612 37.5924 211.612 37.8311 211.612 38.1494C209.899 38.1494 208.186 38.1494 206.433 38.1494C206.433 39.1439 206.433 40.0588 206.433 41.0533C207.987 41.0533 209.541 41.0533 211.094 41.0533C211.094 41.3716 211.094 41.6103 211.094 41.9285C209.541 41.9285 208.027 41.9285 206.473 41.9285C206.473 42.9628 206.473 43.9175 206.473 44.9518C208.226 45.0314 209.939 45.0314 211.692 45.0314Z" fill="#3298F2"/>
<path d="M97.5595 45.8269C96.7628 46.0258 96.2449 45.8269 95.8067 45.1905C94.9702 44.0368 94.0141 42.923 93.1377 41.8091C91.7036 42.8036 90.7873 43.997 91.3052 45.8667C91.0263 45.9065 90.9068 45.9065 90.7475 45.9065C90.628 45.9065 90.5085 45.9065 90.3491 45.9065C90.3491 43.0821 90.3491 40.2577 90.3491 37.3935C90.5881 37.3935 90.867 37.3935 91.1857 37.3935C91.1857 39.0245 91.1857 40.6555 91.1857 42.366C91.9824 41.6102 92.6995 40.9339 93.3767 40.2577C94.1734 39.462 94.9702 38.6664 95.6872 37.831C96.1254 37.3139 96.6433 37.2343 97.4002 37.4332C96.0856 38.6267 94.8507 39.7405 93.6157 40.8942C95.0498 42.6445 96.2848 44.1959 97.5595 45.8269Z" fill="#3298F2"/>
<path d="M115.685 45.867C115.327 45.867 115.088 45.867 114.729 45.867C114.729 43.3211 114.729 40.8149 114.729 38.2292C113.733 38.2292 112.817 38.2292 111.821 38.2292C111.821 37.9109 111.821 37.6325 111.821 37.354C114.012 37.354 116.203 37.354 118.474 37.354C118.474 37.5927 118.474 37.8712 118.474 38.1894C117.558 38.1894 116.681 38.1894 115.685 38.1894C115.685 40.7751 115.685 43.3211 115.685 45.867Z" fill="#3298F2"/>
<path d="M39.2854 46.062C48.3234 40.1465 51.5818 27.2659 44.8271 17.343C45.4693 16.699 46.0876 16.055 46.7298 15.3871C49.3937 19.1081 50.8207 23.2586 51.0823 27.8622C51.9623 27.8622 52.8424 27.8622 53.7937 27.8622C53.2467 19.7522 49.8693 13.1688 43.4238 8.23118C35.4561 2.14867 24.5154 1.26611 15.739 6.13212C7.22423 10.8073 2.80036 18.1779 1.9917 27.8861C2.51495 27.8861 2.96685 27.8861 3.41875 27.8861C3.84687 27.8861 4.29877 27.8861 4.72688 27.8861C5.08365 22.1375 7.15287 17.1522 11.0773 13.0018C14.3119 9.56695 18.2601 7.32477 22.8742 6.29909C31.8409 4.31929 40.3319 7.87339 45.1838 13.5743C44.5655 14.1706 43.9233 14.7908 43.2811 15.4348C40.9027 12.7394 37.9772 10.7596 34.4809 9.5431C34.2193 10.4972 33.9815 11.3798 33.7674 12.2862C33.7436 12.3577 33.9101 12.5247 34.0053 12.5724C35.242 13.0495 36.4312 13.622 37.5253 14.3853C42.0443 17.4861 44.7082 21.7558 45.2552 27.2182C45.826 32.8713 43.9708 37.7373 39.9037 41.6969C39.2616 42.341 38.5005 42.8657 37.7632 43.4621C38.2626 44.3208 38.7621 45.1795 39.2854 46.062Z" fill="#3298F2"/>
<path d="M11.0292 40.6965C10.387 41.3167 9.74481 41.9369 9.07885 42.5809C6.51015 38.9791 5.0831 34.9241 4.7739 30.4636C3.8701 30.4636 3.01387 30.4636 2.0625 30.4636C2.77603 39.003 6.51015 45.7772 13.5741 50.5717C21.9223 56.2487 32.8155 56.4872 41.3303 51.1919C48.965 46.4451 53.0083 39.4562 53.7932 30.4636C52.8418 30.4636 51.9618 30.4636 51.0818 30.4636C50.6299 36.4984 48.2753 41.6268 43.9227 45.8249C40.8546 48.7827 37.2394 50.7864 33.0771 51.6689C24.2532 53.5056 16.7849 50.9533 10.601 44.5369C11.267 43.869 11.8854 43.225 12.5276 42.5809C13.693 43.8928 15.0249 45.0855 16.5233 46.0873C18.0217 47.0891 19.5915 47.8763 21.3515 48.4726C21.6131 47.4946 21.8748 46.5405 22.1126 45.5864C15.6433 42.9149 11.5524 38.2635 10.6486 31.2746C9.74481 24.2857 12.4562 18.7518 18.0217 14.506C17.546 13.6711 17.0466 12.8124 16.5709 11.9775C8.12748 17.1536 3.8701 30.082 11.0292 40.6965Z" fill="#3298F2"/>
<path d="M30.7231 14.4586C38.2865 15.8898 43.5904 23.1172 42.5677 30.774C41.8303 36.2841 38.8573 40.2198 33.8388 42.5813C31.9837 43.44 30.0096 43.8216 27.9879 43.8455C27.869 43.8455 27.6312 43.9409 27.6074 44.0363C27.3695 44.8473 27.1555 45.6583 26.9176 46.517C29.9144 46.684 32.7448 46.1115 35.4562 44.8473C35.9794 45.7299 36.4551 46.5886 36.9784 47.4711C32.7923 49.4986 28.4636 50.0472 23.8732 49.1885C24.3489 47.3042 24.8246 45.4675 25.3003 43.6308C25.2052 43.6069 25.1576 43.5831 25.11 43.5831C18.4742 42.2712 13.646 36.6896 13.1703 30.2731C12.7898 25.1686 14.5736 20.9227 18.4504 17.6072C21.0905 15.3411 24.23 14.2439 27.7025 14.1723C28.0355 14.1723 28.1544 14.0531 28.202 13.7668C28.2495 13.4806 28.3447 13.1944 28.416 12.9081C28.535 12.4549 28.6539 12.0017 28.7728 11.5008C25.7998 11.3577 23.017 11.9302 20.3294 13.1705C19.8299 12.288 19.3305 11.4292 18.831 10.5705C21.8754 8.68615 28.6777 7.80359 31.8885 8.85312C31.3891 10.666 30.8896 12.4788 30.3901 14.3393C30.5328 14.4109 30.628 14.4347 30.7231 14.4586ZM16.1196 28.7704C16.0958 35.3538 21.4235 40.7684 27.9166 40.7923C34.6475 40.8161 39.9752 35.5208 39.999 28.7942C40.0227 22.2347 34.6713 16.8916 28.0355 16.8677C21.5424 16.8439 16.1434 22.2347 16.1196 28.7704Z" fill="#3298F2"/>
</svg>
